{
	"asset":{
		"generator":"Khronos glTF Blender I/O v4.0.44",
		"version":"2.0"
	},
	"scene":0,
	"scenes":[
		{
			"name":"Scene",
			"nodes":[
				0
			]
		}
	],
	"nodes":[
		{
			"mesh":0,
			"name":"Sphere"
		}
	],
	"materials":[
		{
			"doubleSided":true,
			"name":"Material.001",
			"pbrMetallicRoughness":{
				"baseColorFactor":[
					0.8008836507797241,
					0.714049220085144,
					0.24455484747886658,
					1
				],
				"metallicFactor":0,
				"roughnessFactor":0.5
			}
		}
	],
	"meshes":[
		{
			"name":"Sphere.001",
			"primitives":[
				{
					"attributes":{
						"POSITION":0,
						"NORMAL":1,
						"TEXCOORD_0":2
					},
					"indices":3,
					"material":0
				}
			]
		}
	],
	"accessors":[
		{
			"bufferView":0,
			"componentType":5126,
			"count":2277,
			"max":[
				1.9304850101470947,
				2.422684907913208,
				1.9943727254867554
			],
			"min":[
				-1.9304851293563843,
				-2.422684907913208,
				-1.994373083114624
			],
			"type":"VEC3"
		},
		{
			"bufferView":1,
			"componentType":5126,
			"count":2277,
			"type":"VEC3"
		},
		{
			"bufferView":2,
			"componentType":5126,
			"count":2277,
			"type":"VEC2"
		},
		{
			"bufferView":3,
			"componentType":5123,
			"count":12864,
			"type":"SCALAR"
		}
	],
	"bufferViews":[
		{
			"buffer":0,
			"byteLength":27324,
			"byteOffset":0,
			"target":34962
		},
		{
			"buffer":0,
			"byteLength":27324,
			"byteOffset":27324,
			"target":34962
		},
		{
			"buffer":0,
			"byteLength":18216,
			"byteOffset":54648,
			"target":34962
		},
		{
			"buffer":0,
			"byteLength":25728,
			"byteOffset":72864,
			"target":34963
		}
	],
	"buffers":[
		{
			"byteLength":98592,
			"uri":"scene.bin"
		}
	]
}
