<svg width="61" height="26" viewBox="0 0 61 26" fill="none" xmlns="http://www.w3.org/2000/svg">
<path d="M0.60396 0H3.18082C3.50293 0 3.78478 0.278287 3.78478 0.59633V25.3639C3.78478 25.682 3.50293 25.9602 3.18082 25.9602H0.60396C0.281848 25.9602 0 25.682 0 25.3639V0.59633C0 0.278287 0.281848 0 0.60396 0Z" fill="#DDD9E1"/>
<path d="M23.1518 0H25.7287C26.0508 0 26.3326 0.278287 26.3326 0.59633V25.3639C26.3326 25.682 26.0508 25.9602 25.7287 25.9602H23.1518C22.8297 25.9602 22.5479 25.682 22.5479 25.3639V0.59633C22.5479 0.278287 22.87 0 23.1518 0Z" fill="#DDD9E1"/>
<path d="M11.8779 0H14.4547C14.7769 0 15.0587 0.278287 15.0587 0.59633V25.3639C15.0587 25.682 14.7769 25.9602 14.4547 25.9602H11.8779C11.5558 25.9602 11.2739 25.682 11.2739 25.3639V0.59633C11.2739 0.278287 11.5558 0 11.8779 0Z" fill="#DDD9E1"/>
<path d="M34.7076 25.4037V22.8593C34.7076 22.5413 34.9894 22.263 35.3115 22.263H60.396C60.7182 22.263 61 22.5413 61 22.8593V25.4037C61 25.7217 60.7182 26 60.396 26H35.3115C34.9894 26 34.7076 25.7217 34.7076 25.4037Z" fill="#DDD9E1"/>
<path d="M34.7076 3.14067V0.59633C34.7076 0.278287 34.9894 0 35.3115 0H60.396C60.7182 0 61 0.278287 61 0.59633V3.14067C61 3.45871 60.7182 3.737 60.396 3.737H35.3115C34.9894 3.737 34.7076 3.45871 34.7076 3.14067Z" fill="#DDD9E1"/>
<path d="M34.7076 14.2722V11.7278C34.7076 11.4098 34.9894 11.1315 35.3115 11.1315H60.396C60.7182 11.1315 61 11.4098 61 11.7278V14.2722C61 14.5902 60.7182 14.8685 60.396 14.8685H35.3115C34.9894 14.8685 34.7076 14.5902 34.7076 14.2722Z" fill="#DDD9E1"/>
</svg>
