<svg xmlns="http://www.w3.org/2000/svg" width="119" height="78" viewBox="0 0 119 78" fill="none">
  <path d="M118.085 56.0032L117.547 60.3288C116.705 59.524 115.762 58.8869 114.549 58.8869C113.067 58.8869 112.057 59.96 112.057 61.4353C112.057 64.6544 117.58 65.1909 117.58 70.053C117.58 74.2109 114.785 78 110.373 78C109.026 78 107.746 77.6647 106.668 76.8599L107.207 72.6349C108.15 73.3391 109.06 73.8421 110.272 73.8421C111.99 73.8421 113.202 72.702 113.202 70.9919C113.202 70.7572 113.202 70.4554 113.101 70.2206C112.899 69.7177 112.461 69.3153 112.057 68.98C111.72 68.6782 111.35 68.4099 110.979 68.1417C108.925 66.5992 107.679 65.2244 107.679 62.5084C107.679 58.6858 110.205 54.9302 114.347 54.9302C115.795 54.9302 116.839 55.2655 118.085 56.0032Z" fill="#DDD9E1"/>
  <path d="M104.286 55.2655L103.848 77.6311H99.3689L100.245 61.5359C99.9415 63.2796 99.47 64.9897 98.9648 66.6998L95.6643 77.6311H92.2965C91.9934 73.8756 91.6229 70.1201 91.4545 66.3645C91.4209 65.258 91.3198 64.1179 91.3198 63.0113C91.3198 62.5084 91.3535 62.0389 91.3872 61.5359L88.7266 77.6311H84.0116L88.7266 55.2655H94.4856L95.0244 68.477L98.4259 55.2655H104.286Z" fill="#DDD9E1"/>
  <path d="M84.631 55.2655L84.1258 59.4234H79.714L79.1078 64.252H83.0144L82.4756 68.477H78.6026L77.9627 73.5067H82.4419L81.9367 77.6311H73.0793L75.841 55.2655H84.631Z" fill="#DDD9E1"/>
  <path d="M71.6575 73.4397L71.1186 77.6311H62.1602L64.9218 55.2655H69.3L67.0772 73.4397H71.6575Z" fill="#DDD9E1"/>
  <path d="M50.4836 55.2655H55.1648C56.512 55.2655 58.0275 55.3661 59.4083 56.7074C60.6207 57.881 60.9238 59.2893 60.9238 60.7982C60.9238 62.4413 60.5871 63.7155 59.442 64.8891C58.8021 65.5597 58.1285 65.9621 57.2529 66.1633C58.1959 66.4986 58.9031 67.1022 59.3073 67.7058C59.9808 68.7452 60.0482 70.0865 60.0482 70.623C60.0482 72.6685 59.341 74.3786 58.1622 75.5522C56.3436 77.3964 54.0198 77.6311 52.3695 77.6311H47.7219L50.4836 55.2655ZM54.4239 58.9205L53.7167 64.4532C54.626 64.4532 55.4006 64.0843 55.8384 63.6149C56.4446 62.9778 56.7477 61.9048 56.7477 61.1336C56.7477 60.2953 56.4783 59.8258 56.2425 59.5576C55.8384 59.1217 55.0975 58.9205 54.4239 58.9205ZM53.3125 67.8734L52.5716 73.8085C53.6493 73.8085 54.3902 73.3391 54.8281 72.9367C55.6363 72.1655 55.771 71.2266 55.771 70.4218C55.771 69.7847 55.6363 69.0135 55.0638 68.4435C54.525 67.907 53.9187 67.8734 53.5146 67.8734H53.3125Z" fill="#DDD9E1"/>
  <path d="M46.3687 63.0784C46.3687 65.6268 46.032 68.5776 45.19 70.9583C43.9102 74.6133 41.0812 78 36.9051 78C34.716 78 32.6617 76.6923 31.584 74.848C30.6073 73.205 30.4052 71.4278 30.4052 69.55C30.4052 67.5046 30.6073 65.4256 31.1461 63.4473C32.2238 59.2223 35.0191 54.9302 39.8688 54.9302C44.3817 54.9302 46.3687 59.1217 46.3687 63.0784ZM41.6875 63.3131C41.6875 61.8042 41.317 58.9875 39.2963 58.9875C36.7367 58.9875 35.6254 63.6484 35.3559 65.6268C35.1539 66.8675 35.0865 68.1417 35.0865 69.4159C35.0865 70.8913 35.4906 73.7415 37.4777 73.7415C40.0709 73.7415 41.1486 69.0806 41.418 67.1022C41.6201 65.8615 41.6875 64.5873 41.6875 63.3131Z" fill="#DDD9E1"/>
  <path d="M17.167 55.2655H21.9156C23.4648 55.2655 25.2835 55.3996 26.5969 56.3385C28.0451 57.378 28.5839 59.1552 28.5839 60.8653C28.5839 63.7826 27.2031 65.9957 24.6773 67.471L27.2705 77.6311H22.6902L20.0633 67.3369L18.7836 77.6311H14.4054L17.167 55.2655ZM21.1074 58.7528L20.3664 64.8891C20.6022 64.9226 20.8043 64.9226 21.04 64.9226C23.2291 64.9226 24.3068 63.2125 24.3068 61.2006C24.3068 59.5911 23.5996 58.7528 21.9493 58.7528H21.1074Z" fill="#DDD9E1"/>
  <path d="M2.76162 55.2655H8.0828C9.42993 55.2655 10.474 55.2655 11.6864 56.0032C13.404 57.0427 14.0439 59.0211 14.0439 60.9324C14.0439 65.8951 10.3729 68.8123 5.52325 68.4435L4.37818 77.6311H0L2.76162 55.2655ZM5.96106 64.7215H6.23049C8.62165 64.7215 9.69936 63.5814 9.69936 61.2342C9.69936 59.6246 9.1605 58.8534 7.47659 58.8534H6.70198L5.96106 64.7215Z" fill="#DDD9E1"/>
  <path d="M106.296 27.8004H111.045C112.594 27.8004 114.413 27.9345 115.726 28.8734C117.174 29.9129 117.713 31.6901 117.713 33.4002C117.713 36.3175 116.332 38.5306 113.806 40.006L116.4 50.1661H111.819L109.192 39.8718L107.913 50.1661H103.535L106.296 27.8004ZM110.237 31.2877L109.496 37.424C109.731 37.4575 109.933 37.4575 110.169 37.4575C112.358 37.4575 113.436 35.7474 113.436 33.7355C113.436 32.126 112.729 31.2877 111.078 31.2877H110.237Z" fill="#DDD9E1"/>
  <path d="M103.312 27.8004L102.807 31.9583H98.3949L97.7887 36.7869H101.695L101.157 41.0119H97.2835L96.6436 46.0417H101.123L100.618 50.1661H91.7603L94.5219 27.8004H103.312Z" fill="#DDD9E1"/>
  <path d="M92.8048 27.8004L92.2996 31.8913H88.8644L86.608 50.1661H82.2298L84.4863 31.8913H81.0511L81.5562 27.8004H92.8048Z" fill="#DDD9E1"/>
  <path d="M79.8137 27.8004L79.3085 31.8913H75.8733L73.6168 50.1661H69.2387L71.4951 31.8913H68.0599L68.5651 27.8004H79.8137Z" fill="#DDD9E1"/>
  <path d="M66.6407 27.8004L66.1355 31.9583H61.7237L61.1175 36.7869H65.0242L64.4853 41.0119H60.6123L59.9724 46.0417H64.4516L63.9465 50.1661H55.0891L57.8507 27.8004H66.6407Z" fill="#DDD9E1"/>
  <path d="M43.4124 27.8004H48.0937C49.4408 27.8004 50.9564 27.901 52.3372 29.2423C53.5496 30.4159 53.8527 31.8242 53.8527 33.3331C53.8527 34.9762 53.5159 36.2504 52.3709 37.424C51.731 38.0946 51.0574 38.497 50.1818 38.6982C51.1248 39.0335 51.832 39.6371 52.2361 40.2407C52.9097 41.2802 52.9771 42.6214 52.9771 43.1579C52.9771 45.2034 52.2698 46.9135 51.0911 48.0871C49.2725 49.9313 46.9486 50.1661 45.2984 50.1661H40.6508L43.4124 27.8004ZM47.3528 31.4554L46.6455 36.9881C47.5549 36.9881 48.3295 36.6193 48.7673 36.1498C49.3735 35.5127 49.6766 34.4397 49.6766 33.6685C49.6766 32.8302 49.4072 32.3607 49.1714 32.0925C48.7673 31.6566 48.0264 31.4554 47.3528 31.4554ZM46.2414 40.4083L45.5005 46.3434C46.5782 46.3434 47.3191 45.874 47.7569 45.4716C48.5652 44.7004 48.6999 43.7615 48.6999 42.9567C48.6999 42.3196 48.5652 41.5484 47.9927 40.9784C47.4538 40.4419 46.8476 40.4083 46.4435 40.4083H46.2414Z" fill="#DDD9E1"/>
  <path d="M119 0.335321L118.495 4.49325H114.083L113.477 9.32181H117.383L116.845 13.5468H112.972L112.332 18.5766H116.811L116.306 22.701H107.448L110.21 0.335321H119Z" fill="#DDD9E1"/>
  <path d="M108.508 0.335321L99.6168 22.701H96.0469L92.4096 0.335321H97.1246L98.4044 8.9865C98.6064 10.3613 98.7411 11.7696 98.7411 13.178V15.0557C99.2463 13.2115 99.5831 11.3002 100.257 9.48947C100.324 9.32181 100.391 9.15416 100.459 8.9865L103.961 0.335321H108.508Z" fill="#DDD9E1"/>
  <path d="M91.0949 18.5095L90.556 22.701H81.5976L84.3592 0.335321H88.7374L86.5146 18.5095H91.0949Z" fill="#DDD9E1"/>
  <path d="M80.2444 8.1482C80.2444 10.6966 79.9076 13.6474 79.0657 16.0281C77.7859 19.6831 74.9569 23.0698 70.7808 23.0698C68.5917 23.0698 66.5373 21.7621 65.4596 19.9178C64.4829 18.2748 64.2809 16.4976 64.2809 14.6198C64.2809 12.5744 64.4829 10.4954 65.0218 8.51705C66.0995 4.29206 68.8948 0 73.7445 0C78.2574 0 80.2444 4.19146 80.2444 8.1482ZM75.5631 8.38292C75.5631 6.874 75.1927 4.05733 73.172 4.05733C70.6124 4.05733 69.501 8.71824 69.2316 10.6966C69.0295 11.9373 68.9622 13.2115 68.9622 14.4857C68.9622 15.9611 69.3663 18.8113 71.3533 18.8113C73.9466 18.8113 75.0243 14.1504 75.2937 12.172C75.4958 10.9313 75.5631 9.65713 75.5631 8.38292Z" fill="#DDD9E1"/>
  <path d="M62.4701 1.07301L61.9312 5.3986C61.0893 4.59384 60.1463 3.95674 58.9338 3.95674C57.452 3.95674 56.4417 5.02975 56.4417 6.50515C56.4417 9.72419 61.9649 10.2607 61.9649 15.1228C61.9649 19.2807 59.1696 23.0698 54.7577 23.0698C53.4106 23.0698 52.1308 22.7345 51.0531 21.9297L51.592 17.7047C52.535 18.4089 53.4443 18.9119 54.6567 18.9119C56.3743 18.9119 57.5867 17.7718 57.5867 16.0617C57.5867 15.827 57.5867 15.5252 57.4857 15.2905C57.2836 14.7875 56.8458 14.3851 56.4417 14.0498C56.1049 13.748 55.7344 13.4797 55.3639 13.2115C53.3096 11.669 52.0635 10.2942 52.0635 7.57816C52.0635 3.75555 54.5893 0 58.7318 0C60.1799 0 61.224 0.335316 62.4701 1.07301Z" fill="#DDD9E1"/>
</svg>