<svg width="24" height="24" viewBox="0 0 24 24" fill="none" xmlns="http://www.w3.org/2000/svg">
<path d="M9.08463 19.0142C9.71366 18.8489 10.2753 18.5949 10.7642 18.2487C11.2492 17.9054 11.6428 17.4606 11.9319 16.9118C12.2182 16.3699 12.3616 15.7252 12.3616 14.9766C12.3616 14.053 12.1421 13.2654 11.6937 12.607C11.2475 11.9531 10.5748 11.4933 9.66604 11.2322C10.3334 10.9166 10.8327 10.5101 11.1726 10.0146C11.5098 9.51839 11.6784 8.89759 11.6784 8.1545C11.6784 7.46748 11.5656 6.88638 11.3406 6.42237C11.1101 5.95136 10.7883 5.57742 10.3771 5.29627C9.95945 5.0152 9.46505 4.81017 8.88592 4.68728C8.30344 4.5611 7.66626 4.5 6.96004 4.5H0V19.2627H7.15547C7.81681 19.2628 8.46283 19.1796 9.08463 19.0142ZM3.25069 7.01468H6.29169C6.57909 7.01468 6.85993 7.03518 7.12766 7.08752C7.40027 7.1343 7.63517 7.22108 7.84317 7.34672C8.05285 7.46741 8.21871 7.63983 8.34405 7.86017C8.46512 8.08052 8.52531 8.3644 8.52531 8.70787C8.52531 9.32647 8.34405 9.77759 7.97018 10.0504C7.5925 10.3277 7.11562 10.4643 6.53977 10.4643H3.25076L3.25069 7.01468ZM3.25069 16.7484V12.6831H6.78435C7.48401 12.6831 8.05277 12.844 8.47921 13.1676C8.90512 13.4958 9.11914 14.0358 9.11914 14.7967C9.11914 15.1849 9.05621 15.5062 8.92485 15.7536C8.79403 16.0032 8.61392 16.1995 8.39654 16.3427C8.17917 16.4915 7.92134 16.5923 7.63067 16.6558C7.34435 16.7199 7.03997 16.7483 6.7192 16.7483L3.25069 16.7484Z" fill="#DDD9E1"/>
<path d="M14.7895 17.9853C15.2674 18.4818 15.8356 18.8628 16.5155 19.1346C17.196 19.4031 17.9536 19.5394 18.7956 19.5394C20.0038 19.5394 21.0407 19.2627 21.8908 18.7073C22.7508 18.1544 23.3814 17.2359 23.7969 15.9491H21.2114C21.1112 16.28 20.8523 16.5986 20.4269 16.8967C19.9978 17.195 19.4859 17.3447 18.8936 17.3447C18.0702 17.3447 17.4347 17.1288 16.9952 16.6993C16.5539 16.2699 16.2681 15.4698 16.2681 14.6249H23.9815C24.0368 13.7955 23.9695 13.0034 23.7773 12.2451C23.5835 11.4856 23.2736 10.8084 22.8379 10.2163C22.4021 9.62317 21.8475 9.14934 21.171 8.79978C20.4921 8.44534 19.6999 8.27124 18.7956 8.27124C17.9766 8.27124 17.2371 8.41684 16.5664 8.70621C15.8958 8.99658 15.3199 9.39429 14.8344 9.89822C14.3499 10.3994 13.9815 10.997 13.7148 11.6894C13.4537 12.3795 13.3202 13.1261 13.3202 13.9254C13.3202 14.752 13.4488 15.5149 13.7039 16.2039C13.9618 16.8967 14.3236 17.4864 14.7895 17.9853ZM16.4022 12.07C16.4772 11.8031 16.6064 11.5535 16.7958 11.317C16.9863 11.0843 17.2355 10.8866 17.5392 10.7279C17.8502 10.567 18.2383 10.4882 18.7074 10.4882C19.4284 10.4882 20.0196 10.697 20.3684 11.0832C20.7187 11.4724 20.9749 12.0259 21.045 12.7745H16.2681C16.2818 12.566 16.3267 12.33 16.4022 12.07Z" fill="#DDD9E1"/>
<path d="M21.6516 5.49036H15.6676V6.94713H21.6516V5.49036Z" fill="#DDD9E1"/>
</svg>
