<svg width="24" height="24" viewBox="0 0 24 24" fill="none" xmlns="http://www.w3.org/2000/svg">
<path fill-rule="evenodd" clip-rule="evenodd" d="M12 0C9.62663 0 7.30655 0.703788 5.33316 2.02236C3.35977 3.34094 1.8217 5.21508 0.913451 7.4078C0.00519941 9.60051 -0.232441 12.0133 0.230582 14.3411C0.693605 16.6689 1.83649 18.807 3.51472 20.4853C5.19295 22.1635 7.33115 23.3064 9.65892 23.7694C11.9867 24.2324 14.3995 23.9948 16.5922 23.0865C18.7849 22.1783 20.6591 20.6402 21.9776 18.6668C23.2962 16.6934 24 14.3734 24 12C23.9971 8.81828 22.7319 5.76769 20.4821 3.51788C18.2323 1.26806 15.1817 0.00285969 12 0ZM19.9356 5.5368C21.4122 7.3389 22.2292 9.59112 22.2516 11.9208C19.9015 11.4572 17.4955 11.3464 15.1128 11.592C15.042 11.4132 14.9664 11.2416 14.892 11.0628C14.682 10.5612 14.4504 10.0632 14.2128 9.576C16.4383 8.74853 18.4105 7.35659 19.9356 5.5368ZM9.6 2.0484C10.3865 1.86188 11.1917 1.76606 12 1.7628C14.5059 1.75947 16.9253 2.67872 18.7968 4.3452C17.4004 6.07141 15.5353 7.35773 13.4256 8.0496C12.2815 5.96897 11.0036 3.96356 9.6 2.0484ZM1.9704 9.9144C2.29836 8.36115 2.98145 6.90491 3.96618 5.65974C4.95091 4.41457 6.21054 3.41427 7.6464 2.7372C9.02016 4.64322 10.2892 6.62254 11.448 8.6664C8.35215 9.47478 5.16759 9.89401 1.96801 9.9144H1.9704ZM4.3824 18.8664C2.68411 16.9896 1.74329 14.5491 1.7424 12.018C1.7424 11.9112 1.7424 11.808 1.7424 11.7036C5.30444 11.7125 8.85 11.22 12.2748 10.2408C12.5664 10.8132 12.8472 11.3976 13.1052 11.9796C12.9684 12.018 12.8328 12.06 12.702 12.0996C9.24082 13.348 6.3045 15.7319 4.3716 18.8628L4.3824 18.8664ZM12 22.2672C9.72048 22.2698 7.50566 21.5094 5.7084 20.1072C7.4852 17.0364 10.3572 14.7509 13.7484 13.7088C13.7699 13.6995 13.7919 13.6915 13.8144 13.6848C14.7853 16.2006 15.5162 18.8026 15.9972 21.456C14.7332 21.9935 13.3735 22.2694 12 22.2672ZM17.7264 20.5128C17.2711 18.0232 16.6051 15.5768 15.7356 13.2C17.8707 12.885 20.0485 13.034 22.1208 13.6368C21.8972 15.0221 21.3922 16.347 20.6368 17.5296C19.8814 18.7122 18.8917 19.7275 17.7288 20.5128H17.7264Z" fill="#DDD9E1"/>
</svg>
