<svg width="24" height="24" viewBox="0 0 24 24" fill="none" xmlns="http://www.w3.org/2000/svg">
<path d="M12.492 0.771741C13.7198 0.752991 14.9385 0.762741 16.1565 0.752991C16.197 2.27624 16.815 3.64724 17.7983 4.66274L17.7968 4.66124C18.855 5.61449 20.232 6.23249 21.75 6.33749L21.771 6.33899V10.116C20.337 10.08 18.9885 9.74924 17.7728 9.18074L17.8343 9.20624C17.2463 8.92349 16.749 8.63324 16.2765 8.30924L16.3155 8.33474C16.3065 11.0715 16.3245 13.8082 16.2968 16.5352C16.2195 17.925 15.7575 19.1925 15.0165 20.2507L15.0315 20.2275C13.7925 22.002 11.7855 23.1667 9.50325 23.2357H9.49275C9.4005 23.2402 9.29176 23.2425 9.18225 23.2425C7.88476 23.2425 6.67201 22.881 5.6385 22.2532L5.66851 22.2705C3.78751 21.1387 2.49 19.2022 2.25 16.95L2.247 16.9192C2.22825 16.4505 2.21925 15.9817 2.238 15.5227C2.6055 11.9385 5.60851 9.16574 9.25876 9.16574C9.66901 9.16574 10.071 9.20099 10.4618 9.26774L10.4198 9.26174C10.4385 10.6485 10.3823 12.036 10.3823 13.4227C10.065 13.308 9.69901 13.2412 9.31726 13.2412C7.91625 13.2412 6.72451 14.1367 6.28351 15.387L6.27676 15.4095C6.17701 15.7297 6.11926 16.098 6.11926 16.479C6.11926 16.6335 6.12901 16.7865 6.14701 16.9365L6.14551 16.9185C6.39451 18.453 7.71001 19.611 9.29626 19.611C9.34201 19.611 9.38701 19.6102 9.432 19.608H9.42526C10.5225 19.575 11.475 18.9847 12.0135 18.1125L12.021 18.099C12.2213 17.82 12.3585 17.4825 12.4043 17.1157L12.405 17.1052C12.4988 15.4275 12.4613 13.7595 12.4703 12.0817C12.4793 8.30474 12.4613 4.53674 12.489 0.769491L12.492 0.771741Z" fill="#DDD9E1"/>
</svg>
