<svg width="24" height="24" viewBox="0 0 24 24" fill="none" xmlns="http://www.w3.org/2000/svg">
<path d="M12.0765 2.99847H12.21C13.443 3.00297 19.6905 3.04797 21.375 3.50097C21.8842 3.63923 22.3483 3.90871 22.7207 4.28249C23.0932 4.65627 23.361 5.12125 23.4975 5.63097C23.649 6.20097 23.7555 6.95547 23.8275 7.73397L23.8425 7.88997L23.8755 8.27997L23.8875 8.43597C23.985 9.80697 23.997 11.091 23.9985 11.3715V11.484C23.997 11.775 23.9835 13.146 23.8755 14.574L23.8635 14.7315L23.85 14.8875C23.775 15.7455 23.664 16.5975 23.4975 17.2245C23.361 17.7342 23.0932 18.1992 22.7207 18.573C22.3483 18.9467 21.8842 19.2162 21.375 19.3545C19.635 19.8225 13.0215 19.8555 12.105 19.857H11.892C11.4285 19.857 9.5115 19.848 7.5015 19.779L7.2465 19.77L7.116 19.764L6.8595 19.7535L6.603 19.743C4.938 19.6695 3.3525 19.551 2.622 19.353C2.11294 19.2149 1.64902 18.9456 1.27658 18.5721C0.904129 18.1986 0.636185 17.7339 0.4995 17.2245C0.333 16.599 0.222 15.7455 0.147 14.8875L0.135 14.73L0.123 14.574C0.0485451 13.5576 0.00752297 12.539 0 11.52L0 11.3355C0.003 11.013 0.015 9.89847 0.096 8.66847L0.1065 8.51397L0.111 8.43597L0.123 8.27997L0.156 7.88997L0.171 7.73397C0.243 6.95547 0.3495 6.19947 0.501 5.63097C0.637456 5.12125 0.905298 4.65627 1.27776 4.28249C1.65022 3.90871 2.11426 3.63923 2.6235 3.50097C3.354 3.30597 4.9395 3.18597 6.6045 3.11097L6.8595 3.10047L7.1175 3.09147L7.2465 3.08697L7.503 3.07647C8.93056 3.03058 10.3587 3.00508 11.787 2.99997L12.0765 2.99847ZM9.6 7.81347V15.0405L15.8355 11.4285L9.6 7.81347Z" fill="#DDD9E1"/>
</svg>
